<svg width="18" height="18" viewBox="0 0 18 18" fill="none" xmlns="http://www.w3.org/2000/svg">
<path d="M6.68299 15.4991C6.60867 15.4997 6.53498 15.4854 6.46628 15.4571C6.39757 15.4288 6.33525 15.3869 6.28299 15.3341C6.17698 15.228 6.11743 15.0841 6.11743 14.9341C6.11743 14.7841 6.17698 14.6402 6.28299 14.5341L11.173 9.64408C11.346 9.471 11.4432 9.2363 11.4432 8.99158C11.4432 8.74687 11.346 8.51217 11.173 8.33908L6.28499 3.45708C6.1789 3.35166 6.11904 3.20841 6.11857 3.05885C6.1181 2.90929 6.17706 2.76567 6.28249 2.65958C6.38791 2.5535 6.53116 2.49364 6.68072 2.49317C6.83028 2.4927 6.9739 2.55166 7.07999 2.65708L11.97 7.54708C12.1604 7.73706 12.3114 7.96277 12.4144 8.21126C12.5173 8.45974 12.5702 8.72611 12.57 8.99508C12.5719 9.26431 12.5198 9.53119 12.4168 9.77991C12.3137 10.0286 12.1618 10.2541 11.97 10.4431L7.07999 15.3331C6.97333 15.4365 6.83152 15.4958 6.68299 15.4991Z" fill="#292D32"/>
</svg>
