<svg width="24" height="24" viewBox="0 0 24 24" fill="none" xmlns="http://www.w3.org/2000/svg">
<path d="M19.956 8.96005C19.1304 8.15052 18.0316 7.67959 16.876 7.64005V6.88005C16.8748 6.1992 16.7314 5.52611 16.4551 4.90385C16.1788 4.28158 15.7756 3.72387 15.2713 3.26639C14.7671 2.80892 14.1729 2.46176 13.5267 2.24715C12.8806 2.03253 12.1967 1.95518 11.519 2.02005C10.3053 2.19802 9.19511 2.80358 8.38839 3.72763C7.58168 4.65169 7.13151 5.83347 7.11899 7.06005V7.64005C5.96341 7.67959 4.86456 8.15052 4.03899 8.96005C3.65914 9.45448 3.38871 10.024 3.24562 10.6308C3.10253 11.2377 3.09004 11.868 3.20899 12.4801L3.90899 18.0501C4.11899 20.0001 4.90899 22.0001 9.20899 22.0001H14.789C19.089 22.0001 19.879 20.0001 20.089 18.0601L20.789 12.4701C20.9046 11.8593 20.8902 11.231 20.7467 10.6262C20.6032 10.0214 20.3337 9.4537 19.956 8.96005ZM11.656 3.41005C12.1405 3.36185 12.6298 3.41572 13.0922 3.56819C13.5547 3.72066 13.98 3.96835 14.3409 4.29528C14.7017 4.62222 14.9901 5.02114 15.1873 5.46634C15.3845 5.91154 15.4863 6.39312 15.486 6.88005V7.58005H8.50899V7.06005C8.52318 6.17947 8.84596 5.33178 9.42105 4.66477C9.99614 3.99776 10.7871 3.55372 11.656 3.41005ZM8.41599 13.1501H8.40599C8.13988 13.1487 7.88516 13.0419 7.6977 12.8531C7.51023 12.6642 7.40533 12.4087 7.40599 12.1426C7.40665 11.8765 7.51283 11.6215 7.70123 11.4335C7.88963 11.2456 8.14488 11.1401 8.41099 11.1401C8.67709 11.1401 8.93234 11.2456 9.12074 11.4335C9.30914 11.6215 9.41532 11.8765 9.41598 12.1426C9.41664 12.4087 9.31174 12.6642 9.12427 12.8531C8.93681 13.0419 8.68209 13.1487 8.41599 13.1501ZM15.416 13.1501H15.406C15.1399 13.1487 14.8852 13.0419 14.6977 12.8531C14.5102 12.6642 14.4053 12.4087 14.406 12.1426C14.4066 11.8765 14.5128 11.6215 14.7012 11.4335C14.8896 11.2456 15.1449 11.1401 15.411 11.1401C15.6771 11.1401 15.9323 11.2456 16.1207 11.4335C16.3091 11.6215 16.4153 11.8765 16.416 12.1426C16.4166 12.4087 16.3117 12.6642 16.1243 12.8531C15.9368 13.0419 15.6821 13.1487 15.416 13.1501Z" fill="#33A952"/>
</svg>
