<svg width="38" height="38" viewBox="0 0 38 38" fill="none" xmlns="http://www.w3.org/2000/svg">
<path d="M38 19C38 8.50659 29.4934 0 19 0C8.50659 0 0 8.50659 0 19C0 29.4934 8.50659 38 19 38C29.4934 38 38 29.4934 38 19Z" fill="#FAFAFA"/>
<path d="M26.956 15.9601C26.1304 15.1505 25.0316 14.6796 23.876 14.6401V13.8801C23.8748 13.1992 23.7314 12.5261 23.4551 11.9038C23.1788 11.2816 22.7756 10.7239 22.2713 10.2664C21.7671 9.80892 21.1729 9.46176 20.5267 9.24715C19.8806 9.03253 19.1967 8.95518 18.519 9.02005C17.3053 9.19802 16.1951 9.80358 15.3884 10.7276C14.5817 11.6517 14.1315 12.8335 14.119 14.0601V14.6401C12.9634 14.6796 11.8646 15.1505 11.039 15.9601C10.6591 16.4545 10.3887 17.024 10.2456 17.6308C10.1025 18.2377 10.09 18.868 10.209 19.4801L10.909 25.0501C11.119 27.0001 11.909 29.0001 16.209 29.0001H21.789C26.089 29.0001 26.879 27.0001 27.089 25.0601L27.789 19.4701C27.9046 18.8593 27.8902 18.231 27.7467 17.6262C27.6032 17.0214 27.3337 16.4537 26.956 15.9601ZM18.656 10.4101C19.1405 10.3619 19.6298 10.4157 20.0922 10.5682C20.5547 10.7207 20.98 10.9683 21.3409 11.2953C21.7017 11.6222 21.9901 12.0211 22.1873 12.4663C22.3845 12.9115 22.4863 13.3931 22.486 13.8801V14.5801H15.509V14.0601C15.5232 13.1795 15.846 12.3318 16.4211 11.6648C16.9961 10.9978 17.7871 10.5537 18.656 10.4101ZM15.416 20.1501H15.406C15.1399 20.1487 14.8852 20.0419 14.6977 19.8531C14.5102 19.6642 14.4053 19.4087 14.406 19.1426C14.4067 18.8765 14.5128 18.6215 14.7012 18.4335C14.8896 18.2456 15.1449 18.1401 15.411 18.1401C15.6771 18.1401 15.9323 18.2456 16.1207 18.4335C16.3091 18.6215 16.4153 18.8765 16.416 19.1426C16.4166 19.4087 16.3117 19.6642 16.1243 19.8531C15.9368 20.0419 15.6821 20.1487 15.416 20.1501ZM22.416 20.1501H22.406C22.1399 20.1487 21.8852 20.0419 21.6977 19.8531C21.5102 19.6642 21.4053 19.4087 21.406 19.1426C21.4066 18.8765 21.5128 18.6215 21.7012 18.4335C21.8896 18.2456 22.1449 18.1401 22.411 18.1401C22.6771 18.1401 22.9323 18.2456 23.1207 18.4335C23.3091 18.6215 23.4153 18.8765 23.416 19.1426C23.4166 19.4087 23.3117 19.6642 23.1243 19.8531C22.9368 20.0419 22.6821 20.1487 22.416 20.1501Z" fill="#292D32"/>
<path d="M28 18C29.6569 18 31 16.6569 31 15C31 13.3431 29.6569 12 28 12C26.3431 12 25 13.3431 25 15C25 16.6569 26.3431 18 28 18Z" fill="#EA4335"/>
<path d="M28 17.5C29.3807 17.5 30.5 16.3807 30.5 15C30.5 13.6193 29.3807 12.5 28 12.5C26.6193 12.5 25.5 13.6193 25.5 15C25.5 16.3807 26.6193 17.5 28 17.5Z" stroke="#FAFAFA"/>
</svg>
