<svg width="20" height="20" viewBox="0 0 20 20" fill="none" xmlns="http://www.w3.org/2000/svg">
<path d="M16.8409 6.51699L10.4289 10.234C10.2994 10.3077 10.153 10.3465 10.0039 10.3465C9.85492 10.3465 9.70845 10.3077 9.57894 10.234L3.15794 6.51699C3.04947 6.45582 2.95586 6.37143 2.88381 6.26985C2.81176 6.16828 2.76306 6.05204 2.74117 5.92944C2.71929 5.80685 2.72478 5.68093 2.75724 5.56071C2.7897 5.44048 2.84833 5.32891 2.92894 5.23399C3.15769 4.96906 3.43117 4.74634 3.73694 4.57599L8.25794 2.07499C8.80259 1.80769 9.40124 1.6687 10.0079 1.6687C10.6147 1.6687 11.2133 1.80769 11.7579 2.07499L16.2749 4.57499C16.5789 4.74802 16.8519 4.97039 17.0829 5.23299C17.1607 5.3298 17.2165 5.44229 17.2466 5.56272C17.2768 5.68316 17.2805 5.80869 17.2575 5.93069C17.2345 6.05269 17.1853 6.16826 17.1134 6.26947C17.0415 6.37068 16.9486 6.45512 16.8409 6.51699Z" fill="white"/>
<path d="M9.52495 11.784V17.467C9.52782 17.611 9.49373 17.7532 9.42595 17.8802C9.35817 18.0073 9.25895 18.1148 9.13778 18.1925C9.01661 18.2702 8.87752 18.3156 8.73382 18.3243C8.59011 18.333 8.44659 18.3046 8.31695 18.242C6.59995 17.4 3.70795 15.825 3.70795 15.825C3.16758 15.4731 2.71822 14.9982 2.39667 14.4392C2.07512 13.8802 1.89051 13.2531 1.85795 12.609V8.30902C1.85507 8.16031 1.89159 8.01348 1.9638 7.88344C2.03601 7.75341 2.14134 7.64479 2.2691 7.56862C2.39686 7.49246 2.5425 7.45145 2.69123 7.44976C2.83996 7.44807 2.98649 7.48577 3.11595 7.55902L9.10795 11.034C9.2344 11.1144 9.33877 11.2252 9.41159 11.3561C9.48441 11.4871 9.52337 11.6342 9.52495 11.784Z" fill="white"/>
<path d="M10.475 11.784V17.467C10.4722 17.611 10.5062 17.7532 10.574 17.8802C10.6418 18.0073 10.741 18.1148 10.8622 18.1925C10.9834 18.2702 11.1224 18.3156 11.2661 18.3243C11.4099 18.333 11.5534 18.3046 11.683 18.242C13.4 17.4 16.291 15.825 16.291 15.825C16.8315 15.473 17.281 14.9979 17.6025 14.4388C17.9241 13.8796 18.1086 13.2522 18.141 12.608V8.30902C18.1439 8.16031 18.1074 8.01348 18.0352 7.88344C17.963 7.75341 17.8576 7.64479 17.7299 7.56862C17.6021 7.49246 17.4565 7.45145 17.3077 7.44976C17.159 7.44807 17.0125 7.48577 16.883 7.55902L10.892 11.034C10.7656 11.1144 10.6612 11.2252 10.5884 11.3561C10.5156 11.4871 10.4766 11.6342 10.475 11.784Z" fill="white"/>
</svg>
