<svg width="20" height="20" viewBox="0 0 20 20" fill="none" xmlns="http://www.w3.org/2000/svg">
<path d="M17.9701 15.064C17.9689 15.3659 17.9005 15.6638 17.7701 15.936C17.6304 16.2336 17.447 16.5086 17.2261 16.752C16.8658 17.1619 16.4172 17.4847 15.9141 17.696C15.4196 17.8988 14.8895 18.0008 14.3551 17.996C13.4556 17.9794 12.5687 17.7807 11.7481 17.412C10.7754 16.9907 9.85353 16.4607 9.00009 15.832C8.0709 15.1521 7.1941 14.4033 6.37709 13.592C5.5674 12.7777 4.8206 11.9032 4.14309 10.976C3.52176 10.1272 2.99623 9.21235 2.57609 8.24801C2.211 7.42333 2.01513 6.53377 2.00009 5.63201C1.99668 5.10369 2.09444 4.57959 2.28809 4.08801C2.49162 3.57983 2.80592 3.12342 3.20809 2.75201C3.42087 2.52179 3.6777 2.3366 3.96335 2.20743C4.24901 2.07826 4.55768 2.00773 4.87109 2.00001C5.09513 1.99902 5.31655 2.04822 5.51909 2.14401C5.73528 2.24165 5.92064 2.39658 6.05509 2.59201L7.91009 5.20801C8.03844 5.38142 8.14585 5.56939 8.23009 5.76801C8.29956 5.92159 8.33764 6.08751 8.34209 6.25601C8.3398 6.45726 8.28163 6.65391 8.17409 6.82401C8.0507 7.03244 7.90003 7.22347 7.72609 7.39201L7.11809 8.02401C7.07574 8.06557 7.04249 8.11547 7.02045 8.17056C6.99842 8.22565 6.98808 8.28472 6.99009 8.34401C6.99019 8.40612 6.99826 8.46796 7.01409 8.52801C7.03809 8.59201 7.06209 8.64001 7.07809 8.68801C7.29291 9.05226 7.54204 9.39516 7.82209 9.71201C8.18209 10.128 8.56609 10.552 8.98209 10.976C9.41409 11.4 9.83009 11.792 10.2541 12.152C10.5718 12.4323 10.9176 12.679 11.2861 12.888C11.3261 12.904 11.3741 12.928 11.4301 12.952C11.4942 12.9749 11.562 12.9858 11.6301 12.984C11.6912 12.9854 11.7519 12.974 11.8084 12.9506C11.8649 12.9272 11.9159 12.8922 11.9581 12.848L12.5661 12.248C12.7341 12.071 12.9275 11.92 13.1401 11.8C13.3097 11.6914 13.5067 11.6332 13.7081 11.632C13.8757 11.633 14.0416 11.6669 14.1961 11.732C14.3931 11.8163 14.5807 11.9209 14.7561 12.044L17.4031 13.924C17.5952 14.0496 17.7478 14.2272 17.8431 14.436C17.9262 14.635 17.9694 14.8484 17.9701 15.064Z" stroke="#292D32" stroke-width="1.5"/>
</svg>
