<svg width="32" height="32" viewBox="0 0 32 32" fill="none" xmlns="http://www.w3.org/2000/svg">
<path d="M16 32C24.8366 32 32 24.8366 32 16C32 7.16344 24.8366 0 16 0C7.16344 0 0 7.16344 0 16C0 24.8366 7.16344 32 16 32Z" fill="#33A952"/>
<path d="M22.9701 20.431C22.969 20.6952 22.9092 20.9558 22.7951 21.194C22.6728 21.4544 22.5124 21.695 22.3191 21.908C22.0042 22.2666 21.612 22.549 21.1721 22.734C20.7397 22.9127 20.2759 23.0031 19.8081 23C19.021 22.9855 18.2451 22.8117 17.5271 22.489C16.6751 22.1185 15.868 21.6525 15.1211 21.1C14.3081 20.5051 13.5409 19.8499 12.8261 19.14C12.119 18.4283 11.4668 17.6641 10.8751 16.854C10.3301 16.1115 9.86894 15.311 9.50007 14.467C9.18206 13.7451 9.01204 12.9668 9.00007 12.178C8.99711 11.7157 9.08265 11.2571 9.25207 10.827C9.42872 10.3828 9.70199 9.98351 10.0521 9.65801C10.2387 9.45605 10.464 9.29371 10.7147 9.18066C10.9653 9.06762 11.2362 9.00618 11.5111 9.00001C11.7071 8.99919 11.9008 9.04224 12.0781 9.12601C12.2671 9.21159 12.4293 9.34712 12.5471 9.51801L14.1701 11.807C14.2824 11.9588 14.3763 12.1232 14.4501 12.297C14.5115 12.4313 14.5456 12.5764 14.5501 12.724C14.5486 12.9011 14.4977 13.0743 14.4031 13.224C14.2953 13.4074 14.1635 13.5756 14.0111 13.724L13.4791 14.277C13.442 14.3134 13.413 14.3571 13.3937 14.4053C13.3744 14.4535 13.3653 14.5051 13.3671 14.557C13.3672 14.6114 13.3742 14.6655 13.3881 14.718C13.4091 14.774 13.4301 14.818 13.4441 14.858C13.6318 15.1781 13.8498 15.4795 14.0951 15.758C14.4101 16.122 14.7461 16.493 15.1091 16.864C15.4721 17.235 15.8511 17.578 16.2211 17.893C16.4981 18.1381 16.7997 18.3539 17.1211 18.537C17.1561 18.551 17.1981 18.572 17.2471 18.593C17.3032 18.6131 17.3625 18.6226 17.4221 18.621C17.4756 18.6222 17.5287 18.6122 17.5781 18.5917C17.6275 18.5713 17.6721 18.5407 17.7091 18.502L18.2411 17.977C18.3874 17.8223 18.5559 17.6901 18.7411 17.585C18.8903 17.4894 19.0638 17.4384 19.2411 17.438C19.388 17.4399 19.5331 17.4709 19.6681 17.529C19.8404 17.6028 20.0046 17.6943 20.1581 17.802L22.4741 19.447C22.6422 19.5569 22.7757 19.7123 22.8591 19.895C22.9301 20.0649 22.9678 20.2469 22.9701 20.431Z" fill="white"/>
</svg>
