<svg width="20" height="20" viewBox="0 0 20 20" fill="none" xmlns="http://www.w3.org/2000/svg">
<path d="M18.125 6.66598C18.1237 6.83134 18.0574 6.98955 17.9405 7.10648C17.8236 7.22341 17.6654 7.28967 17.5 7.29098H2.5C2.33424 7.29098 2.17527 7.22513 2.05806 7.10792C1.94085 6.99071 1.875 6.83174 1.875 6.66598C1.875 6.50022 1.94085 6.34125 2.05806 6.22404C2.17527 6.10683 2.33424 6.04098 2.5 6.04098H3.35L3.667 4.53298C3.69387 4.12042 3.80511 3.71776 3.99383 3.34992C4.18256 2.98207 4.44475 2.65687 4.76419 2.39441C5.08364 2.13196 5.45354 1.93784 5.85101 1.82407C6.24848 1.7103 6.66507 1.6793 7.075 1.73298H12.925C13.3349 1.6793 13.7515 1.7103 14.149 1.82407C14.5465 1.93784 14.9164 2.13196 15.2358 2.39441C15.5553 2.65687 15.8174 2.98207 16.0062 3.34992C16.1949 3.71776 16.3061 4.12042 16.333 4.53298L16.65 6.04098H17.5C17.6654 6.04229 17.8236 6.10856 17.9405 6.22548C18.0574 6.34241 18.1237 6.50062 18.125 6.66598Z" fill="#E2D9C2"/>
<path d="M18.483 11.384C18.358 10.009 17.991 8.54199 15.316 8.54199H4.68299C2.00799 8.54199 1.64999 10.009 1.51599 11.384L1.04999 16.459C1.02081 16.7738 1.05759 17.0912 1.15797 17.3909C1.25835 17.6907 1.42013 17.9663 1.63299 18.2C1.85315 18.44 2.12102 18.6315 2.41945 18.762C2.71787 18.8925 3.04027 18.9593 3.36599 18.958H4.93299C5.33652 19.0099 5.74467 18.9061 6.07441 18.6678C6.40415 18.4294 6.63071 18.0744 6.70799 17.675L6.87499 17.175C7.06699 16.6 7.11699 16.458 7.86699 16.458H12.134C12.884 16.458 12.909 16.541 13.126 17.175L13.293 17.675C13.3703 18.0744 13.5968 18.4294 13.9266 18.6678C14.2563 18.9061 14.6645 19.0099 15.068 18.958H16.635C16.9606 18.9585 17.2827 18.8914 17.581 18.7609C17.8794 18.6304 18.1473 18.4394 18.368 18.2C18.581 17.9661 18.7428 17.6904 18.8432 17.3905C18.9436 17.0905 18.9803 16.7729 18.951 16.458L18.483 11.384ZM7.49999 13.125H4.99999C4.83423 13.125 4.67526 13.0591 4.55805 12.9419C4.44084 12.8247 4.37499 12.6658 4.37499 12.5C4.37499 12.3342 4.44084 12.1753 4.55805 12.0581C4.67526 11.9408 4.83423 11.875 4.99999 11.875H7.49999C7.66575 11.875 7.82472 11.9408 7.94193 12.0581C8.05914 12.1753 8.12499 12.3342 8.12499 12.5C8.12499 12.6658 8.05914 12.8247 7.94193 12.9419C7.82472 13.0591 7.66575 13.125 7.49999 13.125ZM15 13.125H12.5C12.3342 13.125 12.1753 13.0591 12.058 12.9419C11.9408 12.8247 11.875 12.6658 11.875 12.5C11.875 12.3342 11.9408 12.1753 12.058 12.0581C12.1753 11.9408 12.3342 11.875 12.5 11.875H15C15.1657 11.875 15.3247 11.9408 15.4419 12.0581C15.5591 12.1753 15.625 12.3342 15.625 12.5C15.625 12.6658 15.5591 12.8247 15.4419 12.9419C15.3247 13.0591 15.1657 13.125 15 13.125Z" fill="#E2D9C2"/>
</svg>
