<svg width="12" height="12" viewBox="0 0 12 12" fill="none" xmlns="http://www.w3.org/2000/svg">
<path d="M11 6C11 6.98891 10.7068 7.95561 10.1573 8.77785C9.60794 9.6001 8.82705 10.241 7.91342 10.6194C6.99979 10.9978 5.99446 11.0969 5.02455 10.9039C4.05465 10.711 3.16373 10.2348 2.46447 9.53553C1.76521 8.83627 1.289 7.94536 1.09608 6.97545C0.90315 6.00555 1.00217 5.00021 1.3806 4.08658C1.75904 3.17295 2.39991 2.39206 3.22215 1.84265C4.0444 1.29324 5.0111 1 6 1C7.32608 1 8.59785 1.52678 9.53554 2.46447C10.4732 3.40215 11 4.67392 11 6Z" stroke="#B8B8B8" stroke-width="0.8" stroke-linecap="round" stroke-linejoin="round"/>
<path d="M7.85543 7.59L6.30543 6.665C6.16262 6.56951 6.04401 6.44208 5.95896 6.29282C5.87391 6.14355 5.82477 5.97654 5.81543 5.805V3.755" stroke="#B8B8B8" stroke-width="0.8" stroke-linecap="round" stroke-linejoin="round"/>
</svg>
