<svg width="11" height="11" viewBox="0 0 11 11" fill="none" xmlns="http://www.w3.org/2000/svg">
<path d="M5.417 0.0830078C4.34562 0.0830078 3.2983 0.400709 2.40748 0.995937C1.51666 1.59116 0.822347 2.43718 0.412347 3.42701C0.00234711 4.41684 -0.104928 5.50602 0.104089 6.55681C0.313105 7.60761 0.829024 8.57282 1.5866 9.33041C2.34419 10.088 3.3094 10.6039 4.3602 10.8129C5.41099 11.0219 6.50017 10.9147 7.49 10.5047C8.47983 10.0947 9.32585 9.40035 9.92107 8.50953C10.5163 7.61871 10.834 6.57139 10.834 5.50001C10.8316 4.06406 10.2601 2.68761 9.24477 1.67224C8.2294 0.65687 6.85295 0.0853876 5.417 0.0830078ZM7.773 7.43301C7.73743 7.49464 7.68605 7.54567 7.62417 7.58083C7.5623 7.61599 7.49216 7.634 7.421 7.63301C7.34786 7.63422 7.27605 7.61331 7.215 7.57301L5.536 6.57301C5.32153 6.43341 5.14367 6.24441 5.01734 6.02187C4.89102 5.79932 4.81991 5.54972 4.81 5.29401V3.07301C4.81 2.96533 4.85278 2.86206 4.92892 2.78592C5.00506 2.70978 5.10832 2.66701 5.216 2.66701C5.32368 2.66701 5.42695 2.70978 5.50309 2.78592C5.57923 2.86206 5.622 2.96533 5.622 3.07301V5.29401C5.63202 5.40874 5.66669 5.51996 5.72364 5.62006C5.78059 5.72016 5.85849 5.80678 5.952 5.87401L7.631 6.87401C7.67783 6.90062 7.71879 6.93642 7.75145 6.97925C7.7841 7.02209 7.80776 7.07107 7.82102 7.12327C7.83428 7.17547 7.83687 7.22982 7.82861 7.28304C7.82036 7.33626 7.80145 7.38727 7.773 7.43301Z" fill="#33A952"/>
</svg>
