<svg width="24" height="24" viewBox="0 0 24 24" fill="none" xmlns="http://www.w3.org/2000/svg">
<path d="M21.5297 10.8698L20.0097 9.34981C19.729 9.03758 19.5632 8.63898 19.5397 8.21981V6.05981C19.5397 5.63546 19.3711 5.22849 19.0711 4.92843C18.771 4.62838 18.364 4.45981 17.9397 4.45981H15.7897C15.3705 4.43627 14.9719 4.27048 14.6597 3.98981L13.1397 2.46981C12.839 2.17204 12.4329 2.005 12.0097 2.005C11.5865 2.005 11.1804 2.17204 10.8797 2.46981L9.33968 3.98981C9.02947 4.27364 8.62968 4.43993 8.20968 4.45981H6.05968C5.63534 4.45981 5.22837 4.62838 4.92831 4.92843C4.62825 5.22849 4.45968 5.63546 4.45968 6.05981V8.20981C4.43615 8.62898 4.27035 9.02758 3.98968 9.33981L2.46968 10.8598C2.17192 11.1605 2.00488 11.5666 2.00488 11.9898C2.00488 12.413 2.17192 12.8191 2.46968 13.1198L3.98968 14.6398C4.27035 14.952 4.43615 15.3506 4.45968 15.7698V17.9198C4.45968 18.3442 4.62825 18.7511 4.92831 19.0512C5.22837 19.3512 5.63534 19.5198 6.05968 19.5198H8.20968C8.62885 19.5433 9.02746 19.7091 9.33968 19.9898L10.8597 21.5098C11.1604 21.8076 11.5665 21.9746 11.9897 21.9746C12.4129 21.9746 12.819 21.8076 13.1197 21.5098L14.6397 19.9898C14.9519 19.7091 15.3505 19.5433 15.7697 19.5198H17.9197C18.344 19.5198 18.751 19.3512 19.0511 19.0512C19.3511 18.7511 19.5197 18.3442 19.5197 17.9198V15.7698C19.5432 15.3506 19.709 14.952 19.9897 14.6398L21.5097 13.1198C21.6628 12.9757 21.7851 12.8022 21.8694 12.6096C21.9536 12.417 21.998 12.2093 21.9999 11.9991C22.0017 11.7889 21.961 11.5804 21.8802 11.3864C21.7994 11.1923 21.6802 11.0166 21.5297 10.8698ZM8.00468 8.99981C8.00468 8.80202 8.06333 8.60868 8.17321 8.44424C8.2831 8.27979 8.43927 8.15161 8.622 8.07593C8.80473 8.00024 9.00579 7.98043 9.19977 8.01902C9.39375 8.05761 9.57194 8.15285 9.71179 8.2927C9.85164 8.43255 9.94688 8.61073 9.98547 8.80472C10.0241 8.9987 10.0043 9.19976 9.92856 9.38249C9.85288 9.56522 9.7247 9.72139 9.56025 9.83127C9.3958 9.94116 9.20246 9.99981 9.00468 9.99981C8.73947 9.99981 8.48511 9.89445 8.29758 9.70691C8.11004 9.51938 8.00468 9.26502 8.00468 8.99981ZM9.53468 15.5298C9.46519 15.5996 9.38259 15.655 9.29164 15.6927C9.20069 15.7305 9.10317 15.75 9.00468 15.75C8.9062 15.75 8.80868 15.7305 8.71773 15.6927C8.62678 15.655 8.54418 15.5996 8.47468 15.5298C8.3352 15.3887 8.25698 15.1982 8.25698 14.9998C8.25698 14.8014 8.3352 14.6109 8.47468 14.4698L14.4747 8.46981C14.5433 8.39612 14.6261 8.33702 14.7181 8.29602C14.8101 8.25503 14.9095 8.23299 15.0102 8.23121C15.1109 8.22944 15.2109 8.24796 15.3043 8.28568C15.3977 8.3234 15.4825 8.37955 15.5537 8.45077C15.6249 8.52199 15.6811 8.60682 15.7188 8.70021C15.7565 8.7936 15.7751 8.89363 15.7733 8.99433C15.7715 9.09503 15.7495 9.19434 15.7085 9.28634C15.6675 9.37834 15.6084 9.46114 15.5347 9.52981L9.53468 15.5298ZM15.0047 16.0048C14.8065 16.0068 14.6122 15.9498 14.4464 15.8412C14.2807 15.7325 14.1509 15.577 14.0737 15.3945C13.9965 15.2119 13.9752 15.0106 14.0127 14.8159C14.0501 14.6213 14.1446 14.4422 14.284 14.3013C14.4235 14.1605 14.6016 14.0642 14.7959 14.0248C14.9901 13.9854 15.1917 14.0046 15.375 14.08C15.5583 14.1554 15.7151 14.2836 15.8254 14.4482C15.9358 14.6129 15.9947 14.8066 15.9947 15.0048C15.9955 15.1355 15.9705 15.2651 15.9211 15.3861C15.8718 15.5071 15.799 15.6173 15.7071 15.7101C15.6151 15.803 15.5058 15.8769 15.3852 15.9274C15.2647 15.978 15.1354 16.0043 15.0047 16.0048Z" fill="url(#paint0_linear_1_2606)"/>
<defs>
<linearGradient id="paint0_linear_1_2606" x1="5.88392" y1="5.24008" x2="21.9983" y2="1.99708" gradientUnits="userSpaceOnUse">
<stop stop-color="#FC7B00"/>
<stop offset="1" stop-color="#F95100"/>
</linearGradient>
</defs>
</svg>
