<svg width="24" height="24" viewBox="0 0 24 24" fill="none" xmlns="http://www.w3.org/2000/svg">
<path d="M3.98871 14.6602L2.46871 13.1402C2.17094 12.8395 2.00391 12.4334 2.00391 12.0102C2.00391 11.587 2.17094 11.1809 2.46871 10.8802L3.98871 9.36019C4.26938 9.04797 4.43517 8.64936 4.45871 8.23019V6.08019C4.45871 5.65584 4.62728 5.24888 4.92734 4.94882C5.22739 4.64876 5.63436 4.48019 6.05871 4.48019H8.20371C8.62288 4.45665 9.02149 4.29086 9.33371 4.01019L10.8587 2.49019C11.1594 2.19243 11.5655 2.02539 11.9887 2.02539C12.4119 2.02539 12.818 2.19243 13.1187 2.49019L14.6387 4.01019C14.9509 4.29086 15.3495 4.45665 15.7687 4.48019H17.9187C18.3431 4.48019 18.75 4.64876 19.0501 4.94882C19.3501 5.24888 19.5187 5.65584 19.5187 6.08019V8.22519C19.5422 8.64436 19.708 9.04297 19.9887 9.35519L21.5087 10.8752C21.8065 11.1759 21.9735 11.582 21.9735 12.0052C21.9735 12.4284 21.8065 12.8345 21.5087 13.1352L19.9887 14.6552C19.708 14.9674 19.5422 15.366 19.5187 15.7852V17.9352C19.5187 18.3595 19.3501 18.7665 19.0501 19.0666C18.75 19.3666 18.3431 19.5352 17.9187 19.5352H15.7687C15.3495 19.5587 14.9509 19.7245 14.6387 20.0052L13.1187 21.5252C12.818 21.823 12.4119 21.99 11.9887 21.99C11.5655 21.99 11.1594 21.823 10.8587 21.5252L9.33871 20.0052C9.02649 19.7245 8.62788 19.5587 8.20871 19.5352H6.05871C5.63436 19.5352 5.22739 19.3666 4.92734 19.0666C4.62728 18.7665 4.45871 18.3595 4.45871 17.9352V15.7852C4.43768 15.3669 4.27147 14.9691 3.98871 14.6602Z" stroke="#292D32" stroke-width="1.5" stroke-linecap="round" stroke-linejoin="round"/>
<path d="M9 15L15 9" stroke="#292D32" stroke-width="1.5" stroke-linecap="round" stroke-linejoin="round"/>
<path d="M14.4951 14.5H14.5001" stroke="#292D32" stroke-width="2" stroke-linecap="round" stroke-linejoin="round"/>
<path d="M9.49512 9.5H9.50012" stroke="#292D32" stroke-width="2" stroke-linecap="round" stroke-linejoin="round"/>
</svg>
