<svg width="10" height="10" viewBox="0 0 10 10" fill="none" xmlns="http://www.w3.org/2000/svg">
<path d="M5.63301 1.57023L1.52801 5.91523C1.35551 6.12002 1.23997 6.36662 1.19301 6.63023L1.00801 8.25023C0.983895 8.3762 0.991883 8.50622 1.03124 8.62829C1.07059 8.75036 1.14004 8.86056 1.23319 8.94873C1.32634 9.0369 1.44019 9.1002 1.56424 9.13279C1.68829 9.16538 1.81855 9.16622 1.94301 9.13523L3.55301 8.86023C3.81517 8.80264 4.05594 8.67272 4.24801 8.48523L8.35301 4.14023C8.55964 3.9836 8.7259 3.77992 8.83797 3.54611C8.95004 3.3123 9.00468 3.05511 8.99734 2.79593C8.99001 2.53675 8.92091 2.28307 8.7958 2.05597C8.67068 1.82887 8.49317 1.63491 8.27801 1.49023C8.12089 1.28486 7.91713 1.11985 7.6836 1.00884C7.45006 0.897824 7.19345 0.844002 6.93499 0.851819C6.67653 0.859636 6.42364 0.928869 6.19724 1.05379C5.97084 1.17872 5.77743 1.35574 5.63301 1.57023Z" stroke="white" stroke-linecap="round" stroke-linejoin="round"/>
</svg>
