<svg width="15" height="15" viewBox="0 0 15 15" fill="none" xmlns="http://www.w3.org/2000/svg">
<path d="M7.88701 13.007C7.63412 13.082 7.36491 13.082 7.11201 13.007C5.30001 12.388 1.25001 9.80699 1.25001 5.43199C1.2487 4.97438 1.33755 4.52099 1.51148 4.09773C1.68542 3.67446 1.94104 3.2896 2.26373 2.96514C2.58643 2.64068 2.96988 2.38297 3.3922 2.20673C3.81451 2.03049 4.2674 1.93917 4.72501 1.93799C5.26488 1.93773 5.79726 2.06429 6.27927 2.30746C6.76127 2.55063 7.17941 2.90362 7.50001 3.33799C7.9361 2.75096 8.54664 2.31685 9.24433 2.09774C9.94202 1.87863 10.6911 1.88574 11.3845 2.11806C12.0779 2.35038 12.6801 2.796 13.105 3.39121C13.5298 3.98642 13.7556 4.70073 13.75 5.43199C13.75 9.80699 9.70001 12.388 7.88701 13.007Z" stroke="black" stroke-linecap="round" stroke-linejoin="round"/>
</svg>
