<svg width="18" height="16" viewBox="0 0 18 16" fill="none" xmlns="http://www.w3.org/2000/svg">
<path d="M12.7001 0.583118C11.9814 0.58397 11.2728 0.75234 10.6305 1.07486C9.98827 1.39739 9.43002 1.86518 9.00011 2.44112C8.41711 1.66009 7.60234 1.08315 6.67203 0.792606C5.74172 0.502066 4.74341 0.512775 3.81955 0.823205C2.89569 1.13364 2.09347 1.72793 1.52737 2.52128C0.961262 3.31464 0.66019 4.26652 0.667109 5.24112C0.665351 6.17784 0.811483 7.10897 1.10011 8.00012C2.41711 12.1671 6.47511 14.6581 8.48311 15.3421C8.82019 15.4421 9.17903 15.4421 9.51611 15.3421C11.5241 14.6591 15.5831 12.1671 16.8991 8.00012C17.1876 7.10929 17.3338 6.1785 17.3321 5.24212C17.334 4.63204 17.2156 4.02758 16.9838 3.46325C16.752 2.89893 16.4113 2.38579 15.9812 1.95315C15.551 1.52051 15.0399 1.17683 14.4769 0.941763C13.9139 0.706691 13.3102 0.584822 12.7001 0.583118Z" fill="#EA4335"/>
</svg>
