<svg width="18" height="18" viewBox="0 0 18 18" fill="none" xmlns="http://www.w3.org/2000/svg">
<path d="M15.0302 5.11486L10.7092 2.09286C10.0935 1.69131 9.37054 1.48565 8.63565 1.50296C7.90075 1.52028 7.18833 1.75976 6.59219 2.18986L2.83419 5.12286C2.43742 5.46343 2.1139 5.88099 1.88323 6.35024C1.65256 6.8195 1.51952 7.33069 1.49219 7.85286V13.0279C1.49192 13.9477 1.85661 14.8302 2.50622 15.4815C3.15584 16.1328 4.0373 16.4997 4.95719 16.5019H13.0422C13.9611 16.5016 14.8423 16.1364 15.492 15.4867C16.1418 14.8369 16.5069 13.9558 16.5072 13.0369V7.94986C16.4799 7.39879 16.3337 6.86013 16.0788 6.37081C15.8238 5.88148 15.4661 5.45305 15.0302 5.11486ZM9.56219 13.5019C9.56219 13.651 9.50292 13.7941 9.39744 13.8996C9.29195 14.0051 9.14887 14.0644 8.99969 14.0644C8.8505 14.0644 8.70743 14.0051 8.60194 13.8996C8.49645 13.7941 8.43719 13.651 8.43719 13.5019V11.2499C8.43719 11.1007 8.49645 10.9576 8.60194 10.8521C8.70743 10.7466 8.8505 10.6874 8.99969 10.6874C9.14887 10.6874 9.29195 10.7466 9.39744 10.8521C9.50292 10.9576 9.56219 11.1007 9.56219 11.2499V13.5019Z" fill="url(#paint0_linear_12_9099)"/>
<defs>
<linearGradient id="paint0_linear_12_9099" x1="8.99969" y1="1.50195" x2="8.99969" y2="16.5019" gradientUnits="userSpaceOnUse">
<stop stop-color="#FC7B00"/>
<stop offset="1" stop-color="#F95100"/>
</linearGradient>
</defs>
</svg>
