<svg width="25" height="24" viewBox="0 0 25 24" fill="none" xmlns="http://www.w3.org/2000/svg">
<path d="M12.608 14.99C12.5095 14.9903 12.4119 14.9711 12.3209 14.9333C12.2299 14.8955 12.1473 14.84 12.078 14.77L9.518 12.21C9.38552 12.0678 9.3134 11.8798 9.31683 11.6855C9.32026 11.4912 9.39897 11.3058 9.53638 11.1684C9.67379 11.031 9.85918 10.9522 10.0535 10.9488C10.2478 10.9454 10.4358 11.0175 10.578 11.15L12.608 13.18L14.638 11.15C14.7786 11.0092 14.9693 10.9299 15.1683 10.9297C15.3673 10.9296 15.5582 11.0084 15.699 11.149C15.8398 11.2896 15.9191 11.4803 15.9192 11.6793C15.9194 11.8783 15.8406 12.0692 15.7 12.21L13.14 14.77C13.0705 14.8403 12.9876 14.8959 12.8962 14.9337C12.8049 14.9715 12.7069 14.9906 12.608 14.99Z" fill="#FA4A00"/>
<path d="M12.607 14.92C12.4085 14.9187 12.2185 14.8393 12.0781 14.6989C11.9377 14.5585 11.8583 14.3685 11.857 14.17V4C11.8583 3.80149 11.9377 3.61149 12.0781 3.47112C12.2185 3.33075 12.4085 3.25131 12.607 3.25C12.8055 3.25131 12.9955 3.33075 13.1359 3.47112C13.2762 3.61149 13.3557 3.80149 13.357 4V14.17C13.3557 14.3685 13.2762 14.5585 13.1359 14.6989C12.9955 14.8393 12.8055 14.9187 12.607 14.92Z" fill="#FA4A00"/>
<path d="M12.727 20.93C11.5637 20.9835 10.402 20.7938 9.31622 20.373C8.23039 19.9522 7.24426 19.3096 6.42083 18.4862C5.59739 17.6627 4.95475 16.6766 4.53396 15.5908C4.11317 14.5049 3.92347 13.3433 3.97699 12.18C3.9783 11.9815 4.05774 11.7915 4.19811 11.6511C4.33848 11.5107 4.52848 11.4313 4.72699 11.43C4.9255 11.4313 5.1155 11.5107 5.25587 11.6511C5.39624 11.7915 5.47568 11.9815 5.47699 12.18C5.43211 13.144 5.58892 14.1067 5.93739 15.0067C6.28586 15.9066 6.81831 16.7239 7.5007 17.4063C8.18309 18.0887 9.00038 18.6211 9.90031 18.9696C10.8002 19.3181 11.763 19.4749 12.727 19.43C13.691 19.4749 14.6537 19.3181 15.5537 18.9696C16.4536 18.6211 17.2709 18.0887 17.9533 17.4063C18.6357 16.7239 19.1681 15.9066 19.5166 15.0067C19.8651 14.1067 20.0219 13.144 19.977 12.18C19.977 11.9811 20.056 11.7903 20.1967 11.6497C20.3373 11.509 20.5281 11.43 20.727 11.43C20.9259 11.43 21.1167 11.509 21.2573 11.6497C21.398 11.7903 21.477 11.9811 21.477 12.18C21.5305 13.3433 21.3408 14.5049 20.92 15.5908C20.4992 16.6766 19.8566 17.6627 19.0331 18.4862C18.2097 19.3096 17.2236 19.9522 16.1378 20.373C15.0519 20.7938 13.8903 20.9835 12.727 20.93Z" fill="#FA4A00"/>
</svg>
