<svg width="24" height="24" viewBox="0 0 24 24" fill="none" xmlns="http://www.w3.org/2000/svg">
<path d="M15.1199 10.3104C15.1199 10.9275 14.9369 11.5307 14.5941 12.0438C14.2512 12.5569 13.764 12.9568 13.1939 13.1929C12.6238 13.4291 11.9964 13.4909 11.3912 13.3705C10.786 13.2501 10.2301 12.9529 9.79371 12.5166C9.35737 12.0803 9.06022 11.5243 8.93983 10.9191C8.81945 10.3139 8.88123 9.68656 9.11738 9.11646C9.35353 8.54635 9.75342 8.05907 10.2665 7.71624C10.7796 7.37341 11.3828 7.19043 11.9999 7.19043C12.8274 7.19043 13.6209 7.51914 14.2061 8.10426C14.7912 8.68937 15.1199 9.48295 15.1199 10.3104Z" stroke="#292D32" stroke-width="1.5"/>
<path d="M3.61971 8.49C5.58971 -0.169998 18.4197 -0.159997 20.3797 8.5C21.5297 13.58 18.3697 17.88 15.5997 20.54C14.6318 21.4735 13.3395 21.9952 11.9947 21.9952C10.65 21.9952 9.35763 21.4735 8.38971 20.54C5.62971 17.88 2.46971 13.57 3.61971 8.49Z" stroke="#292D32" stroke-width="1.5"/>
</svg>
