<svg width="24" height="24" viewBox="0 0 24 24" fill="none" xmlns="http://www.w3.org/2000/svg">
<path d="M20.6201 8.45C20.1764 6.5104 19.0759 4.78381 17.5049 3.56276C15.934 2.34171 13.9892 1.70129 12.0001 1.75H11.9901C10.0023 1.70042 8.0584 2.33927 6.48755 3.55841C4.9167 4.77755 3.8154 6.50207 3.3701 8.44C2.2001 13.6 5.3601 17.97 8.2201 20.72C9.23175 21.7012 10.5857 22.25 11.9951 22.25C13.4045 22.25 14.7584 21.7012 15.7701 20.72C18.6301 17.97 21.7901 13.61 20.6201 8.45ZM12.0001 13.46C11.3771 13.46 10.7681 13.2753 10.25 12.9291C9.73203 12.583 9.32829 12.091 9.08987 11.5155C8.85146 10.9399 8.78908 10.3065 8.91062 9.69546C9.03217 9.08442 9.33217 8.52315 9.77271 8.08261C10.2132 7.64208 10.7745 7.34207 11.3856 7.22052C11.9966 7.09898 12.63 7.16136 13.2055 7.39978C13.7811 7.63819 14.2731 8.04194 14.6192 8.55995C14.9654 9.07797 15.1501 9.68699 15.1501 10.31C15.1501 11.1454 14.8182 11.9466 14.2275 12.5374C13.6367 13.1281 12.8355 13.46 12.0001 13.46Z" fill="url(#paint0_linear_1_1584)"/>
<defs>
<linearGradient id="paint0_linear_1_1584" x1="17.0716" y1="24.0338" x2="0.715138" y2="7.153" gradientUnits="userSpaceOnUse">
<stop stop-color="#FA4A00"/>
<stop offset="1" stop-color="#FE8A00"/>
</linearGradient>
</defs>
</svg>
