<svg width="32" height="32" viewBox="0 0 32 32" fill="none" xmlns="http://www.w3.org/2000/svg">
<path d="M16 32C24.8366 32 32 24.8366 32 16C32 7.16344 24.8366 0 16 0C7.16344 0 0 7.16344 0 16C0 24.8366 7.16344 32 16 32Z" fill="#4285F3"/>
<path d="M19.75 9.625H12.25C10 9.625 8.5 10.75 8.5 13.375V18.625C8.5 21.25 10 22.375 12.25 22.375H19.75C22 22.375 23.5 21.25 23.5 18.625V13.375C23.5 10.75 22 9.625 19.75 9.625ZM20.1 14.193L17.755 16.068C17.2504 16.4516 16.6339 16.6593 16 16.6593C15.3661 16.6593 14.7496 16.4516 14.245 16.068L11.9 14.193C11.7837 14.0977 11.7092 13.9607 11.6924 13.8113C11.6756 13.6619 11.7178 13.5118 11.81 13.393C11.9026 13.2766 12.0376 13.2017 12.1854 13.1849C12.3331 13.168 12.4816 13.2105 12.598 13.303L14.943 15.182C15.2491 15.4048 15.6179 15.5249 15.9965 15.5249C16.3751 15.5249 16.7439 15.4048 17.05 15.182L19.4 13.307C19.4573 13.2605 19.5232 13.2258 19.5941 13.2051C19.6649 13.1844 19.7391 13.1781 19.8124 13.1864C19.8857 13.1948 19.9566 13.2178 20.021 13.2539C20.0853 13.2901 20.1417 13.3387 20.187 13.397C20.2803 13.5144 20.3235 13.6638 20.3072 13.8129C20.2909 13.9619 20.2165 14.0985 20.1 14.193Z" fill="white"/>
</svg>
