<svg width="20" height="20" viewBox="0 0 20 20" fill="none" xmlns="http://www.w3.org/2000/svg">
<path d="M7.08301 8.75H12.916" stroke="#D51515" stroke-width="1.5" stroke-linecap="round" stroke-linejoin="round"/>
<path d="M5.83431 15.358H9.16731L12.8753 17.825C13.0005 17.9084 13.146 17.9564 13.2963 17.9636C13.4466 17.9708 13.596 17.9372 13.7287 17.8661C13.8613 17.7951 13.9722 17.6893 14.0494 17.5602C14.1267 17.4311 14.1674 17.2834 14.1673 17.133V15.358C14.7233 15.3915 15.28 15.3067 15.8008 15.1092C16.3216 14.9116 16.7945 14.6058 17.1883 14.212C17.5822 13.8182 17.888 13.3452 18.0855 12.8245C18.2831 12.3037 18.3679 11.7469 18.3343 11.191V6.19097C18.3677 5.63509 18.2828 5.07844 18.0852 4.55779C17.8876 4.03715 17.5818 3.56434 17.1879 3.17061C16.7941 2.77688 16.3212 2.47118 15.8005 2.27369C15.2798 2.07621 14.7232 1.99144 14.1673 2.02497H5.83431C5.27834 1.99142 4.72158 2.07622 4.20081 2.27376C3.68005 2.47131 3.20712 2.7771 2.81328 3.17094C2.41943 3.56479 2.11364 4.03771 1.9161 4.55848C1.71855 5.07925 1.63376 5.63601 1.66731 6.19197V11.192C1.6339 11.7479 1.71881 12.3045 1.91642 12.8252C2.11403 13.3458 2.41985 13.8186 2.81367 14.2123C3.2075 14.6061 3.68037 14.9118 4.20107 15.1092C4.72176 15.3067 5.27843 15.3915 5.83431 15.358Z" stroke="#D51515" stroke-width="1.5" stroke-linecap="round" stroke-linejoin="round"/>
</svg>
