<svg width="18" height="18" viewBox="0 0 18 18" fill="none" xmlns="http://www.w3.org/2000/svg">
<path d="M9 16.5C10.4834 16.5 11.9334 16.0601 13.1668 15.236C14.4001 14.4119 15.3614 13.2406 15.9291 11.8701C16.4968 10.4997 16.6453 8.99168 16.3559 7.53683C16.0665 6.08197 15.3522 4.7456 14.3033 3.6967C13.2544 2.64781 11.918 1.9335 10.4632 1.64411C9.00832 1.35472 7.50032 1.50325 6.12987 2.07091C4.75943 2.63856 3.58809 3.59986 2.76398 4.83323C1.93987 6.0666 1.5 7.51664 1.5 9C1.5058 10.9873 2.29784 12.8916 3.70311 14.2969C5.10838 15.7022 7.01266 16.4942 9 16.5Z" stroke="#292D32" stroke-width="1.5" stroke-linecap="round" stroke-linejoin="round"/>
<path d="M11.998 9H12.003" stroke="#292D32" stroke-width="2" stroke-linecap="round" stroke-linejoin="round"/>
<path d="M8.99695 9H9.00195" stroke="#292D32" stroke-width="2" stroke-linecap="round" stroke-linejoin="round"/>
<path d="M5.99597 9H6.00097" stroke="#292D32" stroke-width="2" stroke-linecap="round" stroke-linejoin="round"/>
</svg>
