<svg width="18" height="18" viewBox="0 0 18 18" fill="none" xmlns="http://www.w3.org/2000/svg">
<path d="M16.5 3.75C16.5 4.19501 16.368 4.63002 16.1208 5.00003C15.8736 5.37004 15.5222 5.65843 15.111 5.82873C14.6999 5.99903 14.2475 6.04358 13.811 5.95677C13.3746 5.86995 12.9737 5.65566 12.659 5.34099C12.3443 5.02632 12.1301 4.62541 12.0432 4.18895C11.9564 3.7525 12.001 3.3001 12.1713 2.88896C12.3416 2.47783 12.63 2.12643 13 1.87919C13.37 1.63196 13.805 1.5 14.25 1.5C14.8467 1.5 15.419 1.73705 15.841 2.15901C16.2629 2.58097 16.5 3.15326 16.5 3.75Z" fill="#292D32"/>
<path d="M14.85 7.06501C14.835 7.06501 14.82 7.07301 14.805 7.07301C14.73 7.08801 14.655 7.09501 14.572 7.11001C14.2379 7.14086 13.9011 7.12335 13.572 7.05801C13.4882 7.03982 13.4054 7.01712 13.324 6.99001C13.0779 6.92993 12.8421 6.83389 12.624 6.70501C12.5341 6.65678 12.4466 6.60404 12.362 6.54701C12.0033 6.30085 11.6932 5.99066 11.447 5.63201C11.3937 5.54715 11.3446 5.45971 11.3 5.37001C11.1711 5.15195 11.0751 4.91608 11.015 4.67001C10.9879 4.58895 10.9652 4.5065 10.947 4.42301C10.8817 4.09391 10.8641 3.75711 10.895 3.42301C10.91 3.34101 10.917 3.26601 10.932 3.19101C10.932 3.17601 10.939 3.16101 10.939 3.14601C10.9606 3.03698 10.9578 2.92451 10.9306 2.81672C10.9034 2.70894 10.8527 2.60854 10.7819 2.52279C10.7112 2.43704 10.6223 2.36808 10.5217 2.3209C10.421 2.27373 10.3112 2.24951 10.2 2.25001H5.64C5.535 2.25001 5.43 2.25701 5.333 2.26501C5.236 2.27301 5.16 2.28001 5.07 2.29501C4.98 2.31001 4.89 2.31701 4.807 2.33201C3.97808 2.41006 3.20237 2.77491 2.61364 3.36364C2.02491 3.95237 1.66006 4.72808 1.582 5.55701C1.567 5.63901 1.552 5.73001 1.545 5.82001C1.538 5.91001 1.523 5.99201 1.515 6.08201C1.507 6.17201 1.5 6.28501 1.5 6.39001V12.36C1.5 12.465 1.507 12.57 1.515 12.667C1.523 12.764 1.53 12.84 1.545 12.93C1.56 13.02 1.567 13.11 1.582 13.192C1.66006 14.0209 2.02491 14.7966 2.61364 15.3854C3.20237 15.9741 3.97808 16.339 4.807 16.417C4.889 16.432 4.98 16.447 5.07 16.455C5.16 16.463 5.243 16.477 5.332 16.485C5.421 16.493 5.532 16.5 5.639 16.5H11.609C11.714 16.5 11.819 16.493 11.917 16.485C12.015 16.477 12.089 16.47 12.179 16.455C12.269 16.44 12.359 16.432 12.441 16.417C13.2699 16.339 14.0456 15.9741 14.6344 15.3854C15.2231 14.7966 15.5879 14.0209 15.666 13.192C15.681 13.11 15.696 13.019 15.704 12.93C15.712 12.841 15.726 12.757 15.734 12.667C15.742 12.577 15.749 12.467 15.749 12.36V7.80001C15.749 7.68888 15.7243 7.57915 15.6767 7.47874C15.6291 7.37833 15.5597 7.28975 15.4737 7.21942C15.3877 7.14908 15.2871 7.09874 15.1792 7.07204C15.0714 7.04533 14.9589 7.04293 14.85 7.06501ZM5.063 9.37501H8.813C8.95808 9.38113 9.09519 9.44306 9.19568 9.54788C9.29617 9.6527 9.35228 9.7923 9.35228 9.93751C9.35228 10.0827 9.29617 10.2223 9.19568 10.3271C9.09519 10.432 8.95808 10.4939 8.813 10.5H5.063C4.91792 10.4939 4.78081 10.432 4.68032 10.3271C4.57983 10.2223 4.52372 10.0827 4.52372 9.93751C4.52372 9.7923 4.57983 9.6527 4.68032 9.54788C4.78081 9.44306 4.91792 9.38113 5.063 9.37501ZM11.813 13.5H5.063C4.91792 13.4939 4.78081 13.432 4.68032 13.3271C4.57983 13.2223 4.52372 13.0827 4.52372 12.9375C4.52372 12.7923 4.57983 12.6527 4.68032 12.5479C4.78081 12.4431 4.91792 12.3811 5.063 12.375H11.813C11.9581 12.3811 12.0952 12.4431 12.1957 12.5479C12.2962 12.6527 12.3523 12.7923 12.3523 12.9375C12.3523 13.0827 12.2962 13.2223 12.1957 13.3271C12.0952 13.432 11.9581 13.4939 11.813 13.5Z" fill="#292D32"/>
</svg>
