<svg width="18" height="18" viewBox="0 0 18 18" fill="none" xmlns="http://www.w3.org/2000/svg">
<path d="M14.5046 10.868L13.7546 9.62301C13.5785 9.2779 13.4763 8.89985 13.4546 8.51301V6.61301C13.4542 5.77555 13.2165 4.95533 12.7691 4.2474C12.3217 3.53947 11.6828 2.97279 10.9266 2.61301C10.7331 2.27154 10.4517 1.98817 10.1116 1.79242C9.77141 1.59667 9.38501 1.4957 8.99258 1.50001C8.59648 1.49951 8.20746 1.60494 7.86582 1.80539C7.52418 2.00583 7.24237 2.294 7.04958 2.64001C6.30809 3.00673 5.68361 3.57305 5.24637 4.27528C4.80914 4.9775 4.57648 5.78779 4.57458 6.61501V8.51501C4.55342 8.89875 4.45117 9.27366 4.27458 9.61501L3.51758 10.868C3.36659 11.0977 3.27175 11.3597 3.24071 11.6329C3.20966 11.906 3.24329 12.1826 3.33887 12.4404C3.43446 12.6981 3.58932 12.9298 3.79094 13.1166C3.99257 13.3035 4.23532 13.4403 4.49958 13.516C5.95422 14.0064 7.4795 14.2547 9.01458 14.251C10.5489 14.2537 12.0736 14.0082 13.5296 13.524C13.7874 13.4382 14.0226 13.2954 14.2176 13.1062C14.4127 12.917 14.5626 12.6863 14.6563 12.4312C14.7499 12.1762 14.7849 11.9033 14.7587 11.6328C14.7324 11.3624 14.6456 11.1013 14.5046 10.869V10.868Z" fill="#292D32"/>
<path d="M11.1218 15.008C10.9639 15.4444 10.6756 15.8217 10.296 16.0886C9.91639 16.3555 9.46383 16.4991 8.99977 16.5C8.70368 16.5003 8.41053 16.4414 8.1375 16.3269C7.86446 16.2123 7.61705 16.0444 7.40977 15.833C7.17034 15.6016 6.99025 15.3158 6.88477 15C6.98477 15.015 7.07977 15.022 7.18477 15.037C7.35677 15.06 7.53677 15.082 7.71677 15.1C8.14477 15.137 8.57977 15.16 9.01677 15.16C9.45377 15.16 9.86977 15.135 10.2848 15.1C10.4478 15.082 10.6048 15.075 10.7548 15.052L11.1218 15.008Z" fill="#292D32"/>
</svg>
