<svg width="24" height="24" viewBox="0 0 24 24" fill="none" xmlns="http://www.w3.org/2000/svg">
<path d="M18.0001 7.16044C17.9371 7.15043 17.873 7.15043 17.8101 7.16044C17.1332 7.13555 16.4931 6.84596 16.0275 6.35398C15.5619 5.86199 15.3081 5.20692 15.3205 4.52968C15.333 3.85244 15.6107 3.20714 16.0941 2.7326C16.5774 2.25805 17.2277 1.99219 17.9051 1.99219C18.5824 1.99219 19.2327 2.25805 19.7161 2.7326C20.1994 3.20714 20.4772 3.85244 20.4896 4.52968C20.5021 5.20692 20.2482 5.86199 19.7826 6.35398C19.3171 6.84596 18.677 7.13555 18.0001 7.16044Z" stroke="#292D32" stroke-width="1.5" stroke-linecap="round" stroke-linejoin="round"/>
<path d="M16.9699 14.4397C18.3271 14.6903 19.7291 14.4341 20.9099 13.7197C21.2278 13.5611 21.4951 13.3171 21.682 13.0151C21.8688 12.713 21.9678 12.3649 21.9678 12.0097C21.9678 11.6545 21.8688 11.3064 21.682 11.0043C21.4951 10.7022 21.2278 10.4582 20.9099 10.2997C19.7183 9.58448 18.3056 9.33182 16.9399 9.58969" stroke="#292D32" stroke-width="1.5" stroke-linecap="round" stroke-linejoin="round"/>
<path d="M5.96998 7.16044C6.03292 7.15043 6.09704 7.15043 6.15998 7.16044C6.83688 7.13555 7.47696 6.84596 7.94254 6.35398C8.40812 5.86199 8.66199 5.20692 8.64954 4.52968C8.6371 3.85244 8.35932 3.20714 7.87598 2.7326C7.39263 2.25805 6.74234 1.99219 6.06498 1.99219C5.38762 1.99219 4.73733 2.25805 4.25398 2.7326C3.77064 3.20714 3.49287 3.85244 3.48042 4.52968C3.46797 5.20692 3.72184 5.86199 4.18742 6.35398C4.653 6.84596 5.29308 7.13555 5.96998 7.16044Z" stroke="#292D32" stroke-width="1.5" stroke-linecap="round" stroke-linejoin="round"/>
<path d="M7.003 14.4402C5.64581 14.6908 4.24385 14.4346 3.063 13.7202C2.74518 13.5617 2.47784 13.3177 2.29097 13.0156C2.10411 12.7136 2.00513 12.3654 2.00513 12.0102C2.00513 11.6551 2.10411 11.3069 2.29097 11.0048C2.47784 10.7028 2.74518 10.4588 3.063 10.3002C4.25377 9.58576 5.66534 9.33312 7.03 9.59023" stroke="#292D32" stroke-width="1.5" stroke-linecap="round" stroke-linejoin="round"/>
<path d="M12.0001 14.6302C11.9371 14.6202 11.873 14.6202 11.8101 14.6302C11.1332 14.6053 10.4931 14.3157 10.0275 13.8237C9.56193 13.3317 9.30806 12.6766 9.32051 11.9994C9.33295 11.3222 9.61073 10.6769 10.0941 10.2023C10.5774 9.72778 11.2277 9.46191 11.9051 9.46191C12.5824 9.46191 13.2327 9.72778 13.7161 10.2023C14.1994 10.6769 14.4772 11.3222 14.4896 11.9994C14.5021 12.6766 14.2482 13.3317 13.7826 13.8237C13.3171 14.3157 12.677 14.6053 12.0001 14.6302Z" stroke="#292D32" stroke-width="1.5" stroke-linecap="round" stroke-linejoin="round"/>
<path d="M9.08986 17.7804C8.77204 17.939 8.50469 18.183 8.31783 18.485C8.13097 18.7871 8.03198 19.1352 8.03198 19.4904C8.03198 19.8456 8.13097 20.1937 8.31783 20.4958C8.50469 20.7978 8.77204 21.0418 9.08986 21.2004C9.96966 21.7256 10.9752 22.003 11.9999 22.003C13.0245 22.003 14.0301 21.7256 14.9099 21.2004C15.2277 21.0418 15.495 20.7978 15.6819 20.4958C15.8687 20.1937 15.9677 19.8456 15.9677 19.4904C15.9677 19.1352 15.8687 18.7871 15.6819 18.485C15.495 18.183 15.2277 17.939 14.9099 17.7804C14.0284 17.2599 13.0235 16.9854 11.9999 16.9854C10.9762 16.9854 9.9713 17.2599 9.08986 17.7804Z" stroke="#292D32" stroke-width="1.5" stroke-linecap="round" stroke-linejoin="round"/>
</svg>
