<svg width="24" height="24" viewBox="0 0 24 24" fill="none" xmlns="http://www.w3.org/2000/svg">
<path d="M10.51 11.2201L8.31 2.39007C8.28374 2.27773 8.21981 2.17776 8.12884 2.10681C8.03788 2.03585 7.92535 1.99818 7.81 2.00007C7.04695 1.9998 6.29132 2.14991 5.5863 2.44179C4.88128 2.73368 4.24068 3.16163 3.70112 3.70119C3.16156 4.24075 2.73361 4.88135 2.44173 5.58637C2.14984 6.29139 1.99974 7.04701 2 7.81007V13.5101C2.00023 13.5899 2.01908 13.6685 2.05505 13.7398C2.09102 13.811 2.14312 13.8729 2.2072 13.9205C2.27128 13.9681 2.34558 14 2.42418 14.0138C2.50279 14.0277 2.58354 14.0229 2.66 14.0001L10.16 11.8301C10.2869 11.795 10.3948 11.7112 10.4604 11.597C10.5259 11.4828 10.5437 11.3473 10.51 11.2201Z" fill="url(#paint0_linear_1_809)"/>
<path d="M11.12 13.6801C11.1032 13.6132 11.0732 13.5504 11.0316 13.4954C10.9901 13.4403 10.938 13.3942 10.8783 13.3597C10.8186 13.3252 10.7526 13.303 10.6842 13.2945C10.6158 13.286 10.5463 13.2913 10.48 13.3101L2.37 15.6701C2.26309 15.7031 2.16954 15.7694 2.10298 15.8594C2.03642 15.9493 2.00034 16.0582 2 16.1701V16.1901C1.99974 16.9531 2.14984 17.7087 2.44173 18.4138C2.73361 19.1188 3.16156 19.7594 3.70112 20.2989C4.24068 20.8385 4.88128 21.2665 5.5863 21.5583C6.29132 21.8502 7.04695 22.0003 7.81 22.0001H12.53C12.6082 21.9999 12.6854 21.982 12.7557 21.9477C12.826 21.9133 12.8876 21.8634 12.9357 21.8017C12.9839 21.7401 13.0174 21.6683 13.0338 21.5918C13.0501 21.5152 13.0488 21.436 13.03 21.3601L11.12 13.6801Z" fill="url(#paint1_linear_1_809)"/>
<path d="M16.1902 2H10.4402C10.3619 2.00013 10.2847 2.01806 10.2144 2.05242C10.1442 2.08678 10.0826 2.13667 10.0344 2.19833C9.98626 2.25998 9.95274 2.33179 9.93641 2.4083C9.92008 2.48482 9.92137 2.56405 9.94017 2.64L14.6802 21.61C14.7079 21.7216 14.7722 21.8206 14.8629 21.8913C14.9535 21.962 15.0652 22.0003 15.1802 22H16.1802C16.944 22.0012 17.7005 21.8518 18.4065 21.5603C19.1125 21.2689 19.7541 20.8412 20.2946 20.3015C20.8352 19.7619 21.264 19.121 21.5567 18.4155C21.8493 17.7101 22 16.9538 22.0002 16.19V7.81C22.0004 7.04695 21.8503 6.29132 21.5584 5.5863C21.2666 4.88128 20.8386 4.24068 20.299 3.70112C19.7595 3.16156 19.1189 2.73361 18.4139 2.44173C17.7089 2.14984 16.9532 1.99974 16.1902 2Z" fill="url(#paint2_linear_1_809)"/>
<defs>
<linearGradient id="paint0_linear_1_809" x1="6.26334" y1="2" x2="6.26334" y2="14.0216" gradientUnits="userSpaceOnUse">
<stop stop-color="#FC7B00"/>
<stop offset="1" stop-color="#F95100"/>
</linearGradient>
<linearGradient id="paint1_linear_1_809" x1="7.52256" y1="13.2905" x2="7.52256" y2="22.0001" gradientUnits="userSpaceOnUse">
<stop stop-color="#FC7B00"/>
<stop offset="1" stop-color="#F95100"/>
</linearGradient>
<linearGradient id="paint2_linear_1_809" x1="15.9626" y1="2" x2="15.9626" y2="22" gradientUnits="userSpaceOnUse">
<stop stop-color="#FC7B00"/>
<stop offset="1" stop-color="#F95100"/>
</linearGradient>
</defs>
</svg>
