<svg width="18" height="18" viewBox="0 0 18 18" fill="none" xmlns="http://www.w3.org/2000/svg">
<path d="M9.00112 1.5C8.064 1.49847 7.16409 1.8666 6.49673 2.5245C5.82937 3.18239 5.44841 4.07695 5.43656 5.014C5.42471 5.95104 5.78292 6.85495 6.43343 7.52951C7.08395 8.20407 7.97426 8.59484 8.91112 8.617C8.96586 8.60947 9.02138 8.60947 9.07612 8.617H9.12812C10.0574 8.57912 10.935 8.17908 11.5731 7.50245C12.2112 6.82582 12.5591 5.92635 12.5425 4.99644C12.526 4.06654 12.1461 3.18005 11.4843 2.52662C10.8224 1.87319 9.93116 1.50471 9.00112 1.5Z" fill="#292D32"/>
<path d="M12.81 10.612C11.6584 9.92716 10.3433 9.56567 9.00347 9.56567C7.66361 9.56567 6.34857 9.92716 5.19697 10.612C4.76754 10.8599 4.40726 11.2116 4.14919 11.635C3.89112 12.0584 3.74353 12.5398 3.71997 13.035C3.74316 13.5274 3.88999 14.006 4.1469 14.4267C4.40381 14.8473 4.76254 15.1965 5.18997 15.442C6.33027 16.1572 7.65417 16.5248 8.99997 16.5C10.3458 16.5248 11.6697 16.1572 12.81 15.442C13.238 15.1935 13.5969 14.8415 13.8537 14.4184C14.1105 13.9953 14.2571 13.5145 14.28 13.02C14.2553 12.5279 14.1079 12.0497 13.8511 11.6291C13.5944 11.2085 13.2365 10.8589 12.81 10.612Z" fill="#292D32"/>
</svg>
