<svg width="24" height="24" viewBox="0 0 24 24" fill="none" xmlns="http://www.w3.org/2000/svg">
<path d="M13.7991 2.76397L15.6331 6.42497C15.7884 6.69762 15.9991 6.93474 16.2516 7.12108C16.5041 7.30743 16.7928 7.43887 17.0991 7.50697L20.4141 8.06197C22.5361 8.42297 23.0351 9.94797 21.5141 11.474L18.9341 14.067C18.7082 14.3206 18.5423 14.6218 18.4487 14.9483C18.355 15.2748 18.336 15.6182 18.3931 15.953L19.1281 19.153C19.7101 21.677 18.3651 22.662 16.1281 21.344L13.0211 19.5C12.7038 19.3358 12.3518 19.2502 11.9946 19.2502C11.6374 19.2502 11.2854 19.3358 10.9681 19.5L7.84808 21.331C5.61508 22.648 4.27008 21.664 4.84808 19.14L5.58308 15.94C5.63819 15.6052 5.61825 15.2623 5.52469 14.9361C5.43113 14.61 5.26629 14.3087 5.04208 14.054L2.48608 11.487C0.960076 9.96097 1.46008 8.42197 3.58108 8.07497L6.89908 7.51997C7.2051 7.44981 7.49347 7.31758 7.74632 7.13147C7.99918 6.94536 8.21114 6.70932 8.36908 6.43797L10.1991 2.77497C11.1811 0.779972 12.8181 0.779972 13.7991 2.76397Z" fill="#FBBC05"/>
</svg>
