<svg width="38" height="38" viewBox="0 0 38 38" fill="none" xmlns="http://www.w3.org/2000/svg">
<path d="M38 19C38 8.50659 29.4934 0 19 0C8.50659 0 0 8.50659 0 19C0 29.4934 8.50659 38 19 38C29.4934 38 38 29.4934 38 19Z" fill="#FAFAFA"/>
<path d="M9.77002 17C9.66868 17.0008 9.5682 16.9815 9.47441 16.943C9.38063 16.9046 9.29543 16.8479 9.22377 16.7763C9.15211 16.7046 9.09542 16.6194 9.05701 16.5256C9.0186 16.4319 8.99922 16.3314 9.00002 16.23V13.92C9.0024 12.6159 9.52152 11.3658 10.4437 10.4437C11.3658 9.52152 12.6159 9.0024 13.92 9.00002H16.23C16.3314 8.99922 16.4319 9.0186 16.5256 9.05701C16.6194 9.09542 16.7046 9.15211 16.7763 9.22377C16.8479 9.29543 16.9046 9.38063 16.943 9.47441C16.9815 9.5682 17.0008 9.66868 17 9.77002C17.0008 9.87136 16.9815 9.97185 16.943 10.0656C16.9046 10.1594 16.8479 10.2446 16.7763 10.3163C16.7046 10.3879 16.6194 10.4446 16.5256 10.483C16.4319 10.5215 16.3314 10.5408 16.23 10.54H13.92C13.0238 10.5406 12.1643 10.8968 11.5306 11.5306C10.8968 12.1643 10.5406 13.0238 10.54 13.92V16.23C10.54 16.4342 10.4589 16.6301 10.3145 16.7745C10.1701 16.9189 9.97424 17 9.77002 17Z" fill="#292D32"/>
<path d="M28.23 17C28.0258 17 27.8299 16.9189 27.6855 16.7745C27.5411 16.6301 27.46 16.4342 27.46 16.23V13.92C27.4595 13.0237 27.1032 12.1643 26.4694 11.5306C25.8357 10.8968 24.9763 10.5405 24.08 10.54H21.77C21.5658 10.54 21.3699 10.4589 21.2255 10.3145C21.0811 10.1701 21 9.97422 21 9.77C21 9.56578 21.0811 9.36993 21.2255 9.22553C21.3699 9.08112 21.5658 9 21.77 9H24.08C25.3841 9.00238 26.6342 9.5215 27.5563 10.4437C28.4785 11.3658 28.9976 12.6159 29 13.92V16.23C29.0008 16.3313 28.9814 16.4318 28.943 16.5256C28.9046 16.6194 28.8479 16.7046 28.7763 16.7763C28.7046 16.8479 28.6194 16.9046 28.5256 16.943C28.4318 16.9814 28.3313 17.0008 28.23 17Z" fill="#292D32"/>
<path d="M24.0799 28.9999H22.6899C22.4857 28.9999 22.2899 28.9188 22.1454 28.7744C22.001 28.63 21.9199 28.4341 21.9199 28.2299C21.9199 28.0257 22.001 27.8299 22.1454 27.6855C22.2899 27.5411 22.4857 27.4599 22.6899 27.4599H24.0799C24.9762 27.4594 25.8356 27.1031 26.4694 26.4694C27.1031 25.8356 27.4594 24.9762 27.4599 24.0799V22.6999C27.4599 22.4957 27.541 22.2999 27.6854 22.1555C27.8299 22.0111 28.0257 21.9299 28.2299 21.9299C28.4341 21.9299 28.63 22.0111 28.7744 22.1555C28.9188 22.2999 28.9999 22.4957 28.9999 22.6999V24.0799C28.9975 25.3841 28.4784 26.6341 27.5563 27.5563C26.6341 28.4784 25.3841 28.9976 24.0799 28.9999Z" fill="#292D32"/>
<path d="M16.23 29H13.92C12.6159 28.9976 11.3658 28.4785 10.4437 27.5564C9.52152 26.6342 9.0024 25.3842 9.00002 24.08V21.77C8.99922 21.6687 9.0186 21.5682 9.05701 21.4744C9.09542 21.3806 9.15211 21.2954 9.22377 21.2238C9.29543 21.1521 9.38063 21.0954 9.47441 21.057C9.5682 21.0186 9.66868 20.9992 9.77002 21C9.87136 20.9992 9.97185 21.0186 10.0656 21.057C10.1594 21.0954 10.2446 21.1521 10.3163 21.2238C10.3879 21.2954 10.4446 21.3806 10.483 21.4744C10.5215 21.5682 10.5408 21.6687 10.54 21.77V24.08C10.5406 24.9763 10.8968 25.8357 11.5306 26.4695C12.1643 27.1032 13.0238 27.4595 13.92 27.46H16.23C16.4342 27.46 16.6301 27.5411 16.7745 27.6856C16.9189 27.83 17 28.0258 17 28.23C17 28.4342 16.9189 28.6301 16.7745 28.7745C16.6301 28.9189 16.4342 29 16.23 29Z" fill="#292D32"/>
<path d="M25.46 18.23H12.54C12.3358 18.23 12.14 18.3111 11.9955 18.4555C11.8511 18.5999 11.77 18.7958 11.77 19C11.77 19.2042 11.8511 19.4 11.9955 19.5445C12.14 19.6889 12.3358 19.77 12.54 19.77H25.46C25.6642 19.77 25.8601 19.6889 26.0045 19.5445C26.1489 19.4 26.23 19.2042 26.23 19C26.23 18.7958 26.1489 18.5999 26.0045 18.4555C25.8601 18.3111 25.6642 18.23 25.46 18.23Z" fill="#292D32"/>
<path d="M13.9 20.94V21.27C13.9 22.0657 14.216 22.8288 14.7786 23.3914C15.3413 23.954 16.1043 24.27 16.9 24.27H21.1C21.8956 24.27 22.6587 23.954 23.2213 23.3914C23.7839 22.8288 24.1 22.0657 24.1 21.27V20.94C24.1007 20.9123 24.0957 20.8847 24.0854 20.8589C24.0751 20.8331 24.0596 20.8097 24.04 20.79C24.0203 20.7704 23.9969 20.7549 23.9711 20.7446C23.9453 20.7343 23.9177 20.7294 23.89 20.73H14.11C14.0822 20.7294 14.0546 20.7343 14.0288 20.7446C14.003 20.7549 13.9796 20.7704 13.9599 20.79C13.9403 20.8097 13.9249 20.8331 13.9146 20.8589C13.9042 20.8847 13.8993 20.9123 13.9 20.94Z" fill="#292D32"/>
<path d="M13.9 17.06V16.73C13.9 15.9343 14.216 15.1713 14.7786 14.6087C15.3413 14.0461 16.1043 13.73 16.9 13.73H21.1C21.8956 13.73 22.6587 14.0461 23.2213 14.6087C23.7839 15.1713 24.1 15.9343 24.1 16.73V17.06C24.1007 17.0877 24.0957 17.1154 24.0854 17.1411C24.0751 17.1669 24.0596 17.1904 24.04 17.21C24.0203 17.2296 23.9969 17.2451 23.9711 17.2554C23.9453 17.2657 23.9177 17.2707 23.89 17.27H14.11C14.0822 17.2707 14.0546 17.2657 14.0288 17.2554C14.003 17.2451 13.9796 17.2296 13.9599 17.21C13.9403 17.1904 13.9249 17.1669 13.9146 17.1411C13.9042 17.1154 13.8993 17.0877 13.9 17.06Z" fill="#292D32"/>
</svg>
