<svg width="24" height="25" viewBox="0 0 24 25" fill="none" xmlns="http://www.w3.org/2000/svg">
<path d="M21 11.7549C21 13.6338 20.4428 15.4705 19.399 17.0328C18.3551 18.5951 16.8714 19.8127 15.1355 20.5317C13.3996 21.2508 11.4895 21.4389 9.64665 21.0723C7.80383 20.7058 6.11109 19.801 4.78249 18.4724C3.45389 17.1438 2.5491 15.4511 2.18254 13.6082C1.81598 11.7654 2.00412 9.85529 2.72315 8.11939C3.44218 6.38349 4.65982 4.89979 6.22209 3.85592C7.78435 2.81205 9.62108 2.25488 11.5 2.25488C14.0196 2.25488 16.4359 3.25577 18.2175 5.03737C19.9991 6.81896 21 9.23533 21 11.7549Z" stroke="#C7C7C7" stroke-width="1.5" stroke-linecap="round" stroke-linejoin="round"/>
<path d="M22 22.2549L20 20.2549" stroke="#C7C7C7" stroke-width="1.5" stroke-linecap="round" stroke-linejoin="round"/>
</svg>
