<svg width="25" height="24" viewBox="0 0 25 24" fill="none" xmlns="http://www.w3.org/2000/svg">
<path d="M14.447 21.6299C13.267 21.6299 11.597 20.7999 10.277 16.8299L9.55699 14.6699L7.39699 13.9499C3.43699 12.6299 2.60699 10.9559 2.60699 9.77986C2.60699 8.60386 3.43699 6.92986 7.39699 5.59986L15.887 2.76986C18.007 2.05986 19.777 2.26986 20.867 3.34986C21.957 4.42986 22.167 6.20986 21.457 8.32986L18.627 16.8199C17.297 20.7999 15.627 21.6299 14.447 21.6299ZM7.86699 7.02986C5.08699 7.95586 4.09699 9.05586 4.09699 9.77986C4.09699 10.5039 5.08699 11.5999 7.86699 12.5199L10.387 13.3559C10.4968 13.3917 10.5966 13.4529 10.6782 13.5346C10.7599 13.6163 10.8212 13.7161 10.857 13.8259L11.697 16.3459C12.617 19.1259 13.727 20.1159 14.447 20.1159C15.167 20.1159 16.267 19.1259 17.197 16.3459L20.027 7.85586C20.537 6.31586 20.447 5.05586 19.797 4.40586C19.147 3.75586 17.887 3.67586 16.357 4.18586L7.86699 7.02986Z" fill="white"/>
<path d="M10.336 14.401C10.2374 14.4014 10.1398 14.3821 10.0488 14.3443C9.95783 14.3065 9.87527 14.251 9.80596 14.181C9.66648 14.0399 9.58826 13.8494 9.58826 13.651C9.58826 13.4526 9.66648 13.2621 9.80596 13.121L13.389 9.531C13.5311 9.39852 13.7192 9.3264 13.9135 9.32983C14.1078 9.33326 14.2932 9.41197 14.4306 9.54938C14.568 9.68679 14.6467 9.87218 14.6501 10.0665C14.6536 10.2608 14.5814 10.4488 14.449 10.591L10.869 14.181C10.7999 14.2522 10.7169 14.3084 10.6253 14.3463C10.5336 14.3841 10.4351 14.4027 10.336 14.401Z" fill="white"/>
</svg>
