<svg width="15" height="15" viewBox="0 0 15 15" fill="none" xmlns="http://www.w3.org/2000/svg">
<path d="M13.75 4.06299H10" stroke="#FA5B01" stroke-width="1.5" stroke-linecap="round" stroke-linejoin="round"/>
<path d="M3.75 4.06299H1.25" stroke="#FA5B01" stroke-width="1.5" stroke-linecap="round" stroke-linejoin="round"/>
<path d="M8.43801 4.063C8.43801 4.49579 8.30966 4.91886 8.0692 5.27869C7.82873 5.63853 7.48696 5.91897 7.08709 6.08454C6.68723 6.25012 6.24724 6.29339 5.82279 6.20888C5.39833 6.12438 5.00847 5.91589 4.70251 5.6098C4.39655 5.3037 4.18824 4.91374 4.10393 4.48924C4.01962 4.06475 4.06309 3.62478 4.22885 3.225C4.39461 2.82521 4.67521 2.48356 5.03515 2.24326C5.3951 2.00296 5.81822 1.8748 6.25101 1.875C6.5383 1.875 6.82277 1.9316 7.08817 2.04157C7.35358 2.15154 7.59471 2.31272 7.79781 2.51591C8.0009 2.7191 8.16198 2.96031 8.27182 3.22576C8.38167 3.49122 8.43814 3.77572 8.43801 4.063Z" stroke="#FA5B01" stroke-width="1.5" stroke-linecap="round" stroke-linejoin="round"/>
<path d="M13.75 10.938H11.25" stroke="#FA5B01" stroke-width="1.5" stroke-linecap="round" stroke-linejoin="round"/>
<path d="M5 10.938H1.25" stroke="#FA5B01" stroke-width="1.5" stroke-linecap="round" stroke-linejoin="round"/>
<path d="M10.938 10.938C10.938 11.3708 10.8097 11.7939 10.5692 12.1537C10.3287 12.5135 9.98696 12.794 9.58709 12.9595C9.18723 13.1251 8.74724 13.1684 8.32279 13.0839C7.89833 12.9994 7.50847 12.7909 7.20251 12.4848C6.89655 12.1787 6.68824 11.7887 6.60393 11.3642C6.51962 10.9397 6.56309 10.4998 6.72885 10.1C6.89461 9.70021 7.17521 9.35856 7.53515 9.11826C7.8951 8.87796 8.31822 8.7498 8.75101 8.75C9.0383 8.75 9.32277 8.8066 9.58817 8.91657C9.85358 9.02654 10.0947 9.18772 10.2978 9.39091C10.5009 9.5941 10.662 9.83531 10.7718 10.1008C10.8817 10.3662 10.9381 10.6507 10.938 10.938Z" stroke="#FA5B01" stroke-width="1.5" stroke-linecap="round" stroke-linejoin="round"/>
</svg>
