<svg width="20" height="20" viewBox="0 0 20 20" fill="none" xmlns="http://www.w3.org/2000/svg">
<path d="M18.6329 6.89199L18.3909 4.58399C18.0419 2.06699 16.8999 1.04199 14.4579 1.04199H5.49194C3.04194 1.04199 1.90894 2.06699 1.54994 4.60899L1.32494 6.89999C1.23418 7.76887 1.47887 8.63958 2.00894 9.33399C2.32671 9.74306 2.73524 10.0726 3.20226 10.2967C3.66929 10.5207 4.18201 10.6331 4.69994 10.625C5.22339 10.6191 5.73846 10.4929 6.20528 10.256C6.6721 10.0191 7.07813 9.67798 7.39194 9.25899C7.68266 9.67786 8.06987 10.0207 8.52089 10.2585C8.97191 10.4963 9.47351 10.6221 9.98337 10.6253C10.4932 10.6286 10.9964 10.5091 11.4504 10.2771C11.9044 10.045 12.2959 9.70714 12.5919 9.29199C12.9068 9.70133 13.3104 10.0339 13.7723 10.2648C14.2343 10.4957 14.7425 10.6189 15.2589 10.625C15.7899 10.6339 16.3153 10.5152 16.7908 10.2789C17.2664 10.0425 17.6783 9.69554 17.9919 9.26699C18.4951 8.58334 18.7238 7.73596 18.6329 6.89199Z" fill="white"/>
<path d="M9.45799 13.883C8.94712 13.9376 8.47458 14.1795 8.13148 14.5619C7.78839 14.9443 7.59905 15.4402 7.59999 15.954V18.242C7.59959 18.2959 7.60985 18.3493 7.63016 18.3992C7.65047 18.4491 7.68045 18.4945 7.71836 18.5328C7.75627 18.5711 7.80138 18.6015 7.85108 18.6223C7.90078 18.6431 7.95411 18.6539 8.00799 18.654H11.983C12.0911 18.6537 12.1947 18.6107 12.2712 18.5342C12.3477 18.4578 12.3907 18.3541 12.391 18.246V16.254C12.4 14.508 11.375 13.683 9.45799 13.883Z" fill="white"/>
<path d="M17.809 12V14.483C17.8088 15.588 17.3696 16.6478 16.5882 17.4292C15.8068 18.2106 14.7471 18.6497 13.642 18.65C13.5339 18.6497 13.4303 18.6066 13.3538 18.5302C13.2774 18.4537 13.2343 18.3501 13.234 18.242V16.25C13.2622 15.7939 13.191 15.3371 13.0254 14.9112C12.8599 14.4852 12.6038 14.1003 12.275 13.783C11.6462 13.2522 10.8387 12.9812 10.017 13.025C9.80257 13.0239 9.58823 13.0349 9.37502 13.058C8.65756 13.1306 7.99289 13.4679 7.51069 14.0041C7.02849 14.5402 6.76335 15.2369 6.76702 15.958V18.241C6.76675 18.3491 6.72368 18.4527 6.64722 18.5292C6.57077 18.6056 6.46714 18.6487 6.35902 18.649C5.25411 18.6487 4.19453 18.2097 3.41315 17.4285C2.63177 16.6474 2.19255 15.5879 2.19202 14.483V12.016C2.19203 11.8821 2.22429 11.7503 2.28606 11.6316C2.34783 11.5129 2.43729 11.4108 2.54687 11.334C2.65645 11.2571 2.78293 11.2079 2.9156 11.1903C3.04826 11.1727 3.18321 11.1873 3.30902 11.233C3.53118 11.3091 3.75978 11.365 3.99202 11.4C4.09364 11.4192 4.19663 11.4302 4.30002 11.433C4.4327 11.4496 4.56629 11.4579 4.70002 11.458C5.67475 11.4497 6.61676 11.1053 7.36702 10.483C8.10003 11.1121 9.03406 11.4579 10 11.458C10.9619 11.4655 11.8941 11.1253 12.625 10.5C13.3676 11.1106 14.2967 11.4486 15.258 11.458C15.4057 11.4582 15.5533 11.4499 15.7 11.433C15.8 11.425 15.892 11.416 15.983 11.4C16.2298 11.3617 16.4726 11.3004 16.708 11.217C16.8329 11.1741 16.9663 11.1615 17.097 11.1804C17.2277 11.1993 17.352 11.2491 17.4596 11.3257C17.5673 11.4022 17.6551 11.5033 17.7159 11.6206C17.7766 11.7378 17.8086 11.8679 17.809 12Z" fill="white"/>
</svg>
