<svg width="12" height="12" viewBox="0 0 12 12" fill="none" xmlns="http://www.w3.org/2000/svg">
<path d="M6.86544 1.755L7.74544 3.515C7.82058 3.64713 7.92258 3.76203 8.04488 3.85229C8.16717 3.94255 8.30704 4.00615 8.45544 4.039L10.0504 4.304C11.0704 4.474 11.3104 5.214 10.5754 5.944L9.33544 7.184C9.22696 7.30567 9.14727 7.45019 9.10226 7.60686C9.05725 7.76352 9.04809 7.92831 9.07544 8.089L9.43044 9.624C9.71044 10.839 9.06544 11.309 7.99044 10.674L6.49544 9.79C6.34236 9.71115 6.17265 9.67001 6.00044 9.67001C5.82824 9.67001 5.65853 9.71115 5.50544 9.79L4.00544 10.675C2.93544 11.31 2.28544 10.835 2.56544 9.625L2.92044 8.09C2.9478 7.92931 2.93864 7.76452 2.89363 7.60786C2.84862 7.45119 2.76892 7.30667 2.66044 7.185L1.42544 5.945C0.695443 5.215 0.930443 4.475 1.95044 4.305L3.54544 4.039C3.69208 4.00466 3.83 3.94026 3.95049 3.8499C4.07098 3.75953 4.17141 3.64516 4.24544 3.514L5.12544 1.754C5.61044 0.800003 6.39044 0.800003 6.86544 1.755Z" fill="#EEC110"/>
</svg>
