<svg width="18" height="18" viewBox="0 0 18 18" fill="none" xmlns="http://www.w3.org/2000/svg">
<path d="M6.95312 1.5H11.0481V4.77H6.95312V1.5Z" fill="#292D32"/>
<path d="M12.1719 1.49996V4.76996H16.4019C16.2438 3.78969 15.7187 2.90628 14.9331 2.29899C14.1476 1.6917 13.1604 1.40604 12.1719 1.49996Z" fill="#292D32"/>
<path d="M1.49963 5.89502V12.142C1.44513 12.7277 1.52047 13.3182 1.72028 13.8714C1.92009 14.4247 2.23945 14.927 2.65562 15.3427C3.07179 15.7584 3.57451 16.0772 4.12797 16.2764C4.68143 16.4755 5.27201 16.5502 5.85763 16.495H12.1426C12.7282 16.55 13.3186 16.4753 13.872 16.276C14.4253 16.0768 14.9279 15.758 15.344 15.3423C15.76 14.9266 16.0793 14.4243 16.279 13.8712C16.4788 13.318 16.5541 12.7276 16.4996 12.142V5.89502H1.49963ZM10.8296 12.135L9.26963 13.035C8.98222 13.2106 8.65424 13.3088 8.31763 13.32C8.10133 13.3226 7.88817 13.2681 7.69963 13.162C7.47081 13.0078 7.28769 12.7949 7.16945 12.5456C7.05122 12.2963 7.00223 12.0198 7.02763 11.745V9.94502C7.00205 9.67011 7.05095 9.39337 7.16919 9.14387C7.28743 8.89437 7.47065 8.6813 7.69963 8.52702C7.94811 8.40312 8.22574 8.34955 8.50248 8.37211C8.77921 8.39468 9.04451 8.49251 9.26963 8.65502L10.8296 9.55502C11.0817 9.67114 11.2977 9.85327 11.4547 10.0821C11.6118 10.311 11.704 10.578 11.7216 10.855C11.7001 11.1284 11.6061 11.3911 11.4493 11.6161C11.2925 11.841 11.0786 12.0202 10.8296 12.135Z" fill="#292D32"/>
<path d="M5.82766 1.49996C4.83917 1.40604 3.85198 1.6917 3.06641 2.29899C2.28083 2.90628 1.75573 3.78969 1.59766 4.76996H5.82766V1.49996Z" fill="#292D32"/>
</svg>
